<svg width="84" height="84" viewBox="0 0 84 84" fill="#ED3C40" xmlns="http://www.w3.org/2000/svg">
<path d="M81.1917 17.3583L43.6917 0.691671C43.1584 0.454712 42.5814 0.332275 41.9979 0.332275C41.4144 0.332275 40.8374 0.454712 40.3042 0.691671L2.80416 17.3583C2.72083 17.3958 2.6625 17.4583 2.57916 17.5042C2.4625 17.5625 2.33749 17.6 2.22916 17.6708C2.13749 17.7333 2.06666 17.8125 1.97916 17.8792C1.67459 18.1055 1.40745 18.3783 1.18749 18.6875C1.10416 18.8042 1.01666 18.9083 0.941661 19.025C0.817648 19.2452 0.711743 19.4751 0.624995 19.7125C0.587495 19.825 0.529162 19.9292 0.495828 20.0417C0.391185 20.4076 0.336522 20.7861 0.333328 21.1667V62.8333C0.333328 64.4833 1.3 65.9708 2.80833 66.6417L40.3083 83.3083C40.85 83.55 41.425 83.6667 42 83.6667C42.5801 83.6518 43.1507 83.5155 43.675 83.2667L43.6917 83.3083L81.1917 66.6417C81.9287 66.3148 82.555 65.7809 82.9944 65.1048C83.4337 64.4288 83.6673 63.6396 83.6667 62.8333V21.1667C83.6673 20.3604 83.4337 19.5713 82.9944 18.8952C82.555 18.2191 81.9287 17.6852 81.1917 17.3583ZM42 9.0625L69.2417 21.1667L42 33.2708L36.55 30.85L14.7625 21.1667L42 9.0625ZM8.66666 60.1292V27.5792L37.8333 40.5417V73.0875L8.66666 60.1292ZM46.1667 73.0875V40.5417L75.3333 27.5792V60.1292L46.1667 73.0875Z" fill="#ED3C40"/>
<path d="M3.99999 48.4301L41.7973 64.7584" stroke="#ED3C40" stroke-width="3"/>
<path d="M4.99999 36.4301L42.7973 52.7584" stroke="#ED3C40" stroke-width="3"/>
<path d="M28.0307 32.5L65.4999 15.4323" stroke="#ED3C40" stroke-width="3"/>
<path d="M18.0307 27.0677L55.4999 9.99999" stroke="#ED3C40" stroke-width="3"/>
<path d="M66.4878 68.1734L66.4613 27" stroke="#ED3C40" stroke-width="3"/>
<path d="M55.4878 75.1734L55.4613 34" stroke="#ED3C40" stroke-width="3"/>
</svg>
