<?xml version="1.0" encoding="utf-8"?>
<!-- Generator: Adobe Illustrator 25.4.1, SVG Export Plug-In . SVG Version: 6.00 Build 0)  -->
<svg version="1.1" id="Camada_1" xmlns="http://www.w3.org/2000/svg" xmlns:xlink="http://www.w3.org/1999/xlink" x="0px" y="0px"
	 viewBox="0 0 172 66" style="enable-background:new 0 0 172 66;" xml:space="preserve">
<style type="text/css">
	.st0{fill-rule:evenodd;clip-rule:evenodd;fill:#C72524;}
	.st1{fill-rule:evenodd;clip-rule:evenodd;fill:#010202;}
</style>
<g>
	<g>
		<g>
			<polygon class="st0" points="43.6,18.9 22.8,31.1 28.4,34.3 49.2,22.1 			"/>
			<polygon class="st0" points="35.9,14.4 15.1,26.6 20.6,29.8 41.5,17.6 			"/>
			<polygon class="st0" points="28.3,10.1 7.5,22.3 13.1,25.5 33.9,13.3 			"/>
			<polygon class="st1" points="34.9,57 34.8,32.6 29.3,35.9 29.4,60.2 			"/>
			<polygon class="st1" points="42.6,52.4 42.6,28.1 37.1,31.4 37.1,55.7 			"/>
			<polygon class="st1" points="50.1,47.9 50,23.6 44.5,26.9 44.6,51.2 			"/>
			<polygon class="st1" points="27.6,42.5 6.8,30.3 6.7,23.7 27.5,35.9 			"/>
			<polygon class="st1" points="27.6,51.1 6.8,38.8 6.7,32.3 27.5,44.5 			"/>
			<polygon class="st1" points="27.6,59.6 6.8,47.4 6.7,40.8 27.5,53 			"/>
		</g>
		<path class="st1" d="M129.5,23.1v8.1H127V17.3h2.4v2.3h0.1c1.1-1.8,2.5-2.7,4.2-2.7c0.2,0,0.4,0,0.7,0.1v2.4h-0.9
			c-1.1,0-2.1,0.4-2.8,1.1C129.8,21.2,129.5,22.1,129.5,23.1z"/>
		<rect x="77" y="12.1" class="st1" width="2.5" height="19.1"/>
		<path class="st1" d="M73.6,17.9h-2.7c-0.6-2.6-2.5-4-5.7-4c-1.9,0-3.5,0.6-4.7,1.9c-1.3,1.4-2,3.3-2,5.7c0,5.3,2.3,7.9,6.8,7.9
			c1.2,0,2.3-0.3,3.2-1c1.3-0.9,2.2-2.3,2.6-4.3h2.7c-0.5,3.1-1.9,5.2-4.3,6.5c-1.4,0.7-2.9,1.1-4.6,1.1c-2.6,0-4.7-0.8-6.3-2.3
			c-1.9-1.8-2.9-4.4-2.9-7.8c0-3,0.9-5.4,2.6-7.2c1.7-1.8,4-2.7,7-2.7c2.5,0,4.5,0.6,6,1.9C72.6,14.7,73.4,16.1,73.6,17.9z"/>
		<g>
			<polygon class="st0" points="114.4,5.8 114.7,5.8 103.8,31.2 103.4,31.2 96.3,17.3 96.8,17.3 103.7,25.1 			"/>
			<path class="st1" d="M85.4,23.1h8.3c-0.2-2.8-1.6-4.1-4.2-4.1c-1.1,0-2.1,0.4-2.9,1.2C85.8,21.1,85.4,22,85.4,23.1z M93.6,26.8
				h2.5c-0.1,0.5-0.3,1.1-0.7,1.7c-0.5,0.9-1.2,1.6-2,2.1c-1,0.6-2.4,1-4,1c-2,0-3.7-0.7-4.9-2c-1.2-1.3-1.7-2.9-1.7-5
				c0-2.3,0.6-4.1,1.7-5.5c1.3-1.5,3-2.3,5.4-2.3c2.1,0,3.7,0.7,4.8,2.2c1.1,1.4,1.6,3.4,1.6,5.9H85.4c0,3,1.4,4.6,4.3,4.6
				c1.1,0,2-0.3,2.8-1C93.2,28,93.5,27.4,93.6,26.8z"/>
			<path class="st1" d="M112.9,23.1h8.3c-0.2-2.8-1.6-4.1-4.2-4.1c-1.1,0-2.1,0.4-2.9,1.2C113.3,21.1,112.9,22,112.9,23.1z
				 M121,26.8h2.5c-0.1,0.5-0.3,1.1-0.7,1.7c-0.5,0.9-1.2,1.6-2,2.1c-1,0.6-2.4,1-4,1c-2,0-3.7-0.7-4.9-2c-1.2-1.3-1.7-2.9-1.7-5
				c0-2.3,0.6-4.1,1.7-5.5c1.3-1.5,3.1-2.3,5.4-2.3c2.1,0,3.7,0.7,4.8,2.2c1.1,1.4,1.6,3.4,1.6,5.9h-10.9c0,3,1.4,4.6,4.3,4.6
				c1.1,0,2-0.3,2.8-1C120.6,28,121,27.4,121,26.8z"/>
		</g>
		<g>
			<path class="st1" d="M164.8,42.9h-2.6c-0.1-1.7-1.3-2.5-3.8-2.5c-0.8,0-1.4,0.1-2,0.4c-0.8,0.4-1.2,0.9-1.2,1.7
				c0,0.6,0.2,1,0.7,1.3c0.3,0.2,1.1,0.4,2.2,0.7l2.7,0.6c1.7,0.4,2.8,0.9,3.5,1.5s1,1.4,1,2.4c0,1.5-0.6,2.7-1.8,3.6
				c-1.2,0.9-2.7,1.3-4.6,1.3c-2.8,0-4.7-0.6-5.8-1.9c-0.7-0.8-1-1.9-1.1-3.2h2.6c0.2,2,1.6,3,4.3,3c1,0,1.9-0.2,2.6-0.6
				c0.7-0.4,1.1-1,1.1-1.8c0-0.6-0.3-1-0.7-1.3s-1.2-0.5-2.5-0.8l-3.2-0.7c-2.5-0.6-3.7-1.8-3.7-3.6c0-1.5,0.6-2.7,1.8-3.6
				c1.1-0.8,2.5-1.1,4.2-1.1c2.4,0,4.2,0.7,5.2,2C164.5,41.1,164.8,42,164.8,42.9z"/>
			<g>
				<path class="st1" d="M110.4,40.8h-2.6v9.6c0,0.8,0.5,1.2,1.6,1.2h0.9v1.9c-1.5,0.1-2.2,0.2-2,0.2c-1.2,0-2.1-0.3-2.6-0.9
					c-0.4-0.5-0.6-1.3-0.6-2.3v-9.7h-2.2v-2.1h2.2v-4.1h2.7v4.1h2.6V40.8z"/>
				<path class="st1" d="M101.5,42.9h-2.6c-0.1-1.7-1.3-2.5-3.8-2.5c-0.8,0-1.4,0.1-2,0.4c-0.8,0.4-1.2,0.9-1.2,1.7
					c0,0.6,0.2,1,0.7,1.3c0.3,0.2,1.1,0.4,2.3,0.7l2.7,0.6c1.7,0.4,2.8,0.9,3.5,1.5s1,1.4,1,2.4c0,1.5-0.6,2.7-1.8,3.6
					c-1.2,0.9-2.7,1.3-4.6,1.3c-2.8,0-4.7-0.6-5.8-1.9c-0.7-0.8-1-1.9-1.1-3.2h2.6c0.2,2,1.6,3,4.3,3c1,0,1.9-0.2,2.6-0.6
					c0.7-0.4,1.1-1,1.1-1.8c0-0.6-0.2-1-0.7-1.3c-0.4-0.3-1.3-0.5-2.5-0.8L93,46.6c-2.5-0.6-3.7-1.8-3.7-3.6c0-1.5,0.6-2.7,1.8-3.6
					c1.1-0.8,2.5-1.1,4.2-1.1c2.5,0,4.2,0.7,5.2,2C101.2,41.1,101.5,42,101.5,42.9z"/>
			</g>
			<g>
				<path class="st1" d="M81.3,50.7l4.3-12h3c-1.2,3.2-3.2,8-5.8,14.5c-0.9,2.2-1.6,3.6-2,4.3c-0.5,0.9-1.1,1.5-1.7,1.7
					c-0.5,0.2-1.4,0.3-2.6,0.3c-0.2,0-0.6-0.1-1.1-0.2V57c0.5,0.2,1,0.3,1.6,0.3c0.7,0,1.2-0.2,1.5-0.6c0.3-0.3,0.7-1.3,1.4-2.8
					l-6-15.1H77L81.3,50.7L81.3,50.7z"/>
				<path class="st1" d="M73.3,44.7h-2.8c-0.1-1.4-0.7-2.5-1.9-3.2c-1-0.6-2.2-0.9-3.6-0.9c-1.3,0-2.4,0.2-3.2,0.6
					c-1.2,0.6-1.8,1.6-1.8,2.9c0,1.4,0.9,2.2,2.6,2.6l6.3,1.3c3.4,0.7,5,2.5,5,5.4c0,2.2-1,3.8-2.9,4.9c-1.5,0.8-3.4,1.3-5.7,1.3
					c-2.9,0-5.1-0.7-6.7-1.9c-1.5-1.2-2.3-2.9-2.3-5.1h2.8c0,1.7,0.7,2.9,2,3.7c1.1,0.7,2.4,1,4.1,1c1.5,0,2.7-0.2,3.7-0.6
					c1.4-0.6,2.1-1.5,2.1-2.8c0-1-0.3-1.8-1-2.3c-0.6-0.5-1.9-0.9-3.7-1.3l-4.5-1c-3.1-0.7-4.7-2.2-4.7-4.8c0-1.7,0.6-3.2,1.8-4.3
					c1.4-1.3,3.3-1.9,5.8-1.9C70.1,38.3,73,40.4,73.3,44.7z"/>
			</g>
			<g>
				<path class="st1" d="M127.8,53.5V38.7h2.5v2.1h0.1c1.3-1.7,2.9-2.5,4.9-2.5c1.9,0,3.4,0.8,4.3,2.4c0.8-0.8,1.5-1.4,2-1.7
					c0.8-0.5,1.8-0.7,2.9-0.7c1.2,0,2.3,0.3,3.2,0.9c1.2,0.9,1.8,2.2,1.8,4v10.2h-2.7v-9.5c0-2.3-1-3.4-3-3.4c-1.1,0-2,0.4-2.7,1.2
					s-1.1,1.7-1.1,2.7v9h-2.7V43.3c0-1.8-0.8-2.7-2.5-2.7c-1,0-1.9,0.3-2.7,1c-1,0.9-1.5,2.2-1.5,3.9v8H127.8z"/>
				<path class="st1" d="M115,45.4h8.3c-0.2-2.8-1.6-4.1-4.1-4.1c-1.1,0-2.1,0.4-2.9,1.2C115.4,43.4,115,44.3,115,45.4z M123.1,49.1
					h2.5c-0.1,0.5-0.3,1.1-0.7,1.7c-0.5,0.9-1.2,1.6-2,2.1c-1,0.6-2.4,1-4,1c-2,0-3.7-0.7-4.9-2c-1.2-1.3-1.7-2.9-1.7-5
					c0-2.3,0.6-4.1,1.7-5.5c1.3-1.5,3.1-2.3,5.4-2.3c2.1,0,3.7,0.7,4.8,2.2c1.1,1.4,1.6,3.4,1.6,5.9H115c0,3,1.4,4.6,4.3,4.6
					c1.1,0,2-0.3,2.8-1C122.7,50.3,123.1,49.7,123.1,49.1z"/>
			</g>
		</g>
	</g>
</g>
</svg>
